<?xml version="1.0" encoding="UTF-8"?>
<svg id="Layer_1" xmlns="http://www.w3.org/2000/svg" version="1.1" viewBox="0 0 2000 264.32">
  <!-- Generator: Adobe Illustrator 29.8.1, SVG Export Plug-In . SVG Version: 2.1.1 Build 2)  -->
  <defs>
    <style>
      .st0 {
        fill: #fff;
      }
    </style>
  </defs>
  <g>
    <path class="st0" d="M614.39,47.99c-17.01,0-28.08,6.21-28.08,17.82,0,38.34,101.53,17.55,101.26,85.33,0,35.37-30.78,55.9-72.37,55.9-30.24,0-59.68-12.15-79.93-30.24l15.12-30.51c19.44,17.28,45.1,27.81,65.35,27.81s32.4-7.56,32.4-20.79c0-39.43-101.53-17.01-101.53-84.25,0-32.94,28.35-54.01,70.75-54.01,25.11,0,50.23,8.1,68.32,19.98l-14.58,31.32c-20.25-12.15-42.12-18.36-56.71-18.36Z"/>
    <path class="st0" d="M862.55,115.5v90.19h-35.37v-79.93c0-20.25-12.15-32.67-32.13-32.67-23.76.27-38.07,17.82-38.07,41.58v71.02h-35.1V5.32h35.1v83.44c10.26-19.71,28.35-28.62,52.12-28.89,33.21,0,53.47,21.33,53.47,55.63Z"/>
    <path class="st0" d="M987.31,205.69v-17.55c-9.99,12.69-26.19,19.17-46.72,19.17-31.05,0-50.5-19.17-50.5-44.83s19.71-43.21,54.82-43.48h42.12v-3.78c0-16.74-11.07-26.73-32.67-26.73-13.5,0-28.08,4.59-42.94,13.5l-12.69-24.3c20.79-11.61,36.99-17.82,63.46-17.82,37.8,0,59.14,19.17,59.41,51.31l.27,94.51h-34.56ZM987.04,155.46v-12.96h-36.45c-18.63,0-27.27,5.13-27.27,17.82s9.72,19.98,25.65,19.98c20.25,0,36.18-10.8,38.07-24.84Z"/>
    <path class="st0" d="M1145.55,59.87v34.02c-30.51-1.89-49.15,15.93-49.15,42.13v69.67h-35.1V61.22h35.1v27.81c9.72-18.9,26.73-28.89,49.15-29.16Z"/>
    <path class="st0" d="M1250.32,205.69v-17.55c-9.99,12.69-26.19,19.17-46.72,19.17-31.05,0-50.5-19.17-50.5-44.83s19.71-43.21,54.82-43.48h42.12v-3.78c0-16.74-11.07-26.73-32.67-26.73-13.5,0-28.08,4.59-42.94,13.5l-12.69-24.3c20.79-11.61,36.99-17.82,63.46-17.82,37.8,0,59.14,19.17,59.41,51.31l.27,94.51h-34.56ZM1250.05,155.46v-12.96h-36.45c-18.63,0-27.27,5.13-27.27,17.82s9.72,19.98,25.65,19.98c20.25,0,36.19-10.8,38.08-24.84Z"/>
    <path class="st0" d="M1464.73,115.5v90.19h-35.38v-79.93c0-20.25-12.15-32.67-32.13-32.67-23.76.27-37.8,17.82-37.8,41.58v71.02h-35.1V61.22h35.1v27c10.26-19.17,28.35-28.08,51.85-28.35,33.21,0,53.47,21.33,53.47,55.63Z"/>
  </g>
  <g>
    <path class="st0" d="M657.8,245.19l4.47-.39c.21,1.79.7,3.26,1.48,4.41.77,1.15,1.97,2.07,3.6,2.78,1.63.71,3.46,1.06,5.49,1.06,1.81,0,3.4-.27,4.79-.81,1.38-.54,2.41-1.27,3.09-2.21.68-.94,1.01-1.96,1.01-3.06s-.33-2.1-.98-2.94c-.65-.84-1.73-1.54-3.22-2.11-.96-.37-3.08-.96-6.37-1.75-3.29-.79-5.59-1.53-6.91-2.23-1.71-.89-2.98-2.01-3.82-3.33-.84-1.33-1.26-2.81-1.26-4.46,0-1.81.51-3.5,1.54-5.07,1.03-1.57,2.52-2.76,4.49-3.58,1.97-.81,4.16-1.22,6.57-1.22,2.65,0,4.99.43,7.02,1.28,2.03.85,3.58,2.11,4.68,3.77,1.09,1.66,1.68,3.54,1.76,5.64l-4.54.34c-.24-2.26-1.07-3.97-2.48-5.13-1.41-1.16-3.49-1.73-6.24-1.73s-4.95.53-6.26,1.57c-1.31,1.05-1.97,2.32-1.97,3.8,0,1.29.46,2.34,1.39,3.17.91.83,3.29,1.68,7.14,2.55,3.85.87,6.49,1.63,7.92,2.28,2.08.96,3.62,2.18,4.61,3.65.99,1.47,1.49,3.17,1.49,5.09s-.55,3.7-1.64,5.38c-1.09,1.69-2.66,3-4.7,3.93-2.04.94-4.34,1.4-6.9,1.4-3.24,0-5.95-.47-8.14-1.42-2.19-.94-3.91-2.36-5.15-4.26-1.25-1.9-1.9-4.04-1.97-6.43Z"/>
    <path class="st0" d="M801.87,256.69v-31.57h-11.79v-4.22h28.37v4.22h-11.84v31.57h-4.74Z"/>
    <path class="st0" d="M946.79,220.9h4.74v20.68c0,3.6-.41,6.45-1.22,8.57-.81,2.12-2.28,3.84-4.41,5.16-2.12,1.33-4.91,1.99-8.36,1.99s-6.1-.58-8.23-1.73c-2.13-1.16-3.65-2.83-4.57-5.02-.91-2.19-1.37-5.18-1.37-8.97v-20.68h4.74v20.65c0,3.11.29,5.4.87,6.87.58,1.47,1.57,2.61,2.98,3.41,1.41.8,3.13,1.2,5.16,1.2,3.48,0,5.96-.79,7.45-2.37,1.48-1.58,2.22-4.61,2.22-9.11v-20.65Z"/>
    <path class="st0" d="M1059.41,256.69v-35.79h12.33c2.78,0,4.91.17,6.37.51,2.05.47,3.8,1.33,5.25,2.56,1.89,1.6,3.3,3.63,4.24,6.12.94,2.48,1.4,5.32,1.4,8.51,0,2.72-.32,5.13-.95,7.23s-1.45,3.84-2.44,5.21c-.99,1.38-2.08,2.46-3.26,3.25-1.18.79-2.6,1.39-4.27,1.79-1.67.41-3.58.61-5.75.61h-12.92ZM1064.15,252.47h7.64c2.36,0,4.21-.22,5.55-.66s2.41-1.06,3.21-1.86c1.12-1.12,2-2.63,2.62-4.53.63-1.9.94-4.19.94-6.9,0-3.74-.61-6.62-1.84-8.63-1.23-2.01-2.72-3.36-4.48-4.04-1.27-.49-3.31-.73-6.13-.73h-7.52v27.34Z"/>
    <path class="st0" d="M1196.33,256.69v-35.79h4.74v35.79h-4.74Z"/>
    <path class="st0" d="M1307.97,239.26c0-5.94,1.59-10.59,4.79-13.95,3.19-3.36,7.31-5.04,12.35-5.04,3.3,0,6.28.79,8.94,2.37,2.65,1.58,4.67,3.78,6.07,6.6,1.39,2.82,2.09,6.03,2.09,9.61s-.73,6.88-2.2,9.74c-1.46,2.87-3.54,5.03-6.23,6.51-2.69,1.47-5.58,2.21-8.69,2.21-3.37,0-6.38-.81-9.03-2.44-2.65-1.63-4.66-3.85-6.03-6.67-1.37-2.82-2.05-5.79-2.05-8.94ZM1312.85,239.33c0,4.31,1.16,7.71,3.48,10.19,2.32,2.48,5.23,3.72,8.73,3.72s6.5-1.25,8.8-3.76c2.3-2.51,3.45-6.06,3.45-10.67,0-2.91-.49-5.46-1.48-7.63-.98-2.17-2.42-3.86-4.32-5.05-1.9-1.2-4.03-1.79-6.38-1.79-3.35,0-6.24,1.15-8.65,3.45-2.42,2.3-3.63,6.15-3.63,11.54Z"/>
  </g>
</svg>